# xmcd CD database file
#
# Track frame offsets:
#	150
#	15943
#	37976
#	57019
#	72111
#	90047
#	106134
#	123287
#	143992
#	164419
#	178215
#	199845
#	214698
#	233741
#	255934
#	280401
#
# Disc length: 3966 seconds
#
# Revision: 2
# Processed by: cddbd v1.5.2PL0 Copyright (c) Steve Scherf et al.
# Submitted via: CDex 1.51
#
DISCID=cd0f7c10
DTITLE=John Denver - SFWS-016
DYEAR=1900
DGENRE=Blues
TTITLE0=John Denver/Annie's Song
TTITLE1=John Denver/Back Home Again
TTITLE2=John Denver/Calypso
TTITLE3=John Denver/Country Roads
TTITLE4=John Denver/Fly Away
TTITLE5=John Denver/I'm Sorry
TTITLE6=John Denver/Like A Sad Song
TTITLE7=John Denver/Looking For Space
TTITLE8=John Denver/My Sweet Lady
TTITLE9=John Denver/Perhaps Love
TTITLE10=John Denver/Rocky Mountain High
TTITLE11=John Denver/Shanghai Breezes
TTITLE12=John Denver/Some Days Are Diamonds
TTITLE13=John Denver/Sunshine On My Shoulders
TTITLE14=John Denver/Sweet Surrender
TTITLE15=John Denver/Thank God I'm A Country Boy
EXTD=
EXTT0=
EXTT1=
EXTT2=
EXTT3=
EXTT4=
EXTT5=
EXTT6=
EXTT7=
EXTT8=
EXTT9=
EXTT10=
EXTT11=
EXTT12=
EXTT13=
EXTT14=
EXTT15=
PLAYORDER=
